<svg width="256" height="256" xmlns="http://www.w3.org/2000/svg">

 <g>
  <title>background</title>
  <rect fill="none" id="canvas_background" height="402" width="582" y="-1" x="-1"/>
 </g>
 <g>
  <title>Layer 1</title>
  <path stroke="null" id="svg_2" fill-rule="evenodd" clip-rule="evenodd" fill="#0080ff" d="m223.72808,24.793346c-2.194824,-4.029666 -4.691325,-7.707766 -7.899268,-10.927619c-3.220043,-3.231168 -7.024888,-6.132592 -11.053168,-8.335734c-6.760315,-3.698305 -15.154851,-5.540992 -23.393707,-5.540992l-111.192303,0c-8.42438,0 -16.569669,1.89522 -23.605849,5.615346c-4.050865,2.142528 -7.73391,4.967981 -10.891036,8.184602c-3.171645,3.231168 -6.04242,6.859968 -8.103344,10.968837c-3.45961,6.896337 -5.060759,14.933039 -5.060759,23.154009l0,111.071194c0,8.345433 1.347869,16.711878 5.078504,23.545984c2.162559,3.960161 4.993809,7.969621 8.136416,11.148257c3.173259,3.209347 6.923253,5.840025 10.891843,8.0464c6.828072,3.798522 15.198408,5.182961 23.554226,5.182961l111.192303,0c8.524402,0 16.454322,-1.230883 23.377575,-5.173263c3.822591,-2.175664 7.968638,-4.941311 11.040262,-8.054482c3.164386,-3.20773 5.807692,-7.153343 7.974284,-11.151489c3.683045,-6.801778 5.269674,-15.254701 5.269674,-23.544368l0,-111.072002c0,-8.329269 -1.597922,-16.293233 -5.315652,-23.11764z"/>
  <path stroke="null" id="svg_4" fill-rule="evenodd" clip-rule="evenodd" fill="#FFFFFF" d="m99.750743,110.060205c20.149028,0 12.213971,0.014085 31.946122,0.014085c-0.159294,-8.653253 -2.053032,-11.771043 -3.33247,-11.911066c-20.188004,0 -4.15436,-0.007457 -27.724825,-0.007457c0.051686,-0.788768 1.057443,-19.911431 1.449747,-36.995061l26.238643,0c0.643108,-6.303519 -0.907469,-11.754472 -3.828146,-12.099972c-35.589555,0 -13.827249,0.038113 -46.535103,0.038113c0.716824,-2.707663 1.579386,-5.909963 2.57328,-8.982183c1.526852,-4.719354 3.246891,-9.21086 4.039973,-11.056843c-0.648192,-0.394384 -1.773419,-0.120967 -4.593267,0.535236c-3.285868,0.959447 -5.180452,1.909781 -7.953697,4.231345c-1.447205,1.211323 -2.519899,2.77726 -3.383308,4.521333c-2.996088,7.19834 -8.965385,27.283764 -16.708102,41.111239c12.014853,-0.704258 17.922297,-7.462644 19.911781,-12.8266c0.740549,-1.996777 1.50228,-3.851874 1.938645,-5.545406c5.06776,-0.038113 8.939966,-0.040598 15.960775,-0.040598c0.073716,6.794014 -0.10083,19.994285 -1.227752,37.041459c-14.073816,0 -20.60827,-0.09611 -28.669575,-0.09611c-4.14504,1.09947 -6.340419,7.678064 -7.003863,11.980663c0.038976,0.038113 0.077953,0.076226 0.116929,0.114338c18.146835,0 14.806739,0 34.143197,0c-0.833753,6.429457 -1.098961,9.588673 -3.876442,19.009981c-4.720363,13.916128 -12.047051,25.011912 -22.313904,34.996627c-2.741047,2.666236 -6.553942,6.042529 -10.292272,8.9217c-0.116929,0.152451 -0.233858,0.304074 -0.350786,0.457353c3.516336,2.981909 15.693873,-0.044741 18.596756,-1.029044c2.352132,-0.797882 4.723752,-1.413486 6.432776,-2.859285c6.533606,-5.52635 14.57034,-17.739832 19.706732,-36.053013c18.567948,21.190694 22.868892,27.561325 27.545195,32.849884l0.467715,0c1.476861,-5.345729 2.524983,-13.810075 0.584644,-17.956081c-0.129638,-0.584119 -0.616842,-1.274292 -1.131159,-2.053946c-9.308546,-10.890307 -9.178907,-10.678201 -19.285619,-21.527909c-5.993022,4.695326 -7.363122,5.859422 -7.363122,5.859422s1.395519,-5.122023 1.815785,-6.924923c1.339597,-5.763312 1.439579,-8.374036 2.104718,-13.717279zm100.862915,-62.89848c-29.995615,0 -24.213573,0.046398 -59.382015,0.046398c-0.762579,0 -1.731054,0.697629 -1.731054,1.627249c0,65.484348 -0.006778,9.127177 -0.006778,108.474712c0,0.683544 0.64565,1.53611 1.729359,1.53611c6.79373,0 7.519875,0.009942 9.394971,-0.008285c0.539736,0.003314 1.640392,5.91742 4.036584,12.41316c12.783363,-8.110561 18.499315,-11.562251 21.403894,-12.364276c8.225684,-0.038113 23.293394,-0.048884 24.587237,-0.048884c0.666833,0 1.472624,-0.800368 1.472624,-1.57588c0,-72.333045 0.04406,-34.497847 0.04406,-108.679361c-0.000847,-0.875765 -1.004909,-1.367917 -1.548882,-1.420943zm-11.064172,98.553795c0,0.469781 -0.48805,0.954476 -0.892217,0.954476c-0.783762,0 -7.791014,0.006628 -12.77489,0.028999c-0.17624,0 -0.46602,0.114338 -0.694794,0.268446c-3.134199,2.11443 -7.807113,5.041655 -15.454084,9.56216c-1.315025,-4.339883 -2.480923,-9.842206 -2.807985,-9.844691c-1.135395,0.0116 0.316047,0.004971 -3.79849,0.004971c-0.656665,0 -1.048122,-0.516179 -1.048122,-0.930448c0,-60.188332 0.004237,-46.059269 0.004237,-85.732166c0,-0.563406 0.586338,-0.985961 1.048122,-0.985961c21.306453,0 17.192764,-0.027342 35.365865,-0.027342c0.443143,0 1.08032,0.416755 1.08032,0.947019c-0.000847,44.941571 -0.027961,41.93232 -0.027961,85.754536z"/>
  <polyline stroke-linecap="round" id="svg_5" points="63.39690219112961,36.000968491122116 63.39690219112961,36.000968491122116 " fill-opacity="null" stroke-opacity="null" stroke-width="null" stroke="null" fill="none"/>
  <path d="m201.055847,72.629517c0,0 0,0 0,0c0,-0.805023 0.043625,-2.113419 -0.805023,-4.830139c-0.268356,-0.8591 -0.805023,-3.220093 -1.207535,-5.232651c-0.402512,-2.012554 -0.587189,-2.291672 -0.805023,-2.817577c-0.308075,-0.743744 -0.793961,-1.468159 -1.207535,-3.220093c-0.092484,-0.391743 -0.117889,-1.72794 -0.402512,-2.012558c-0.284622,-0.284618 -0.402512,-0.402512 -0.805023,-0.805023l0,-0.402512l0,0" id="svg_6" fill-opacity="null" stroke-opacity="null" stroke-width="null" stroke="null" fill="none"/>
  <polyline stroke-linecap="round" id="svg_7" points="266.26270465636753,61.761705312104716 266.26270465636753,61.761705312104716 266.26270465636753,61.761705312104716 " fill-opacity="null" stroke-opacity="null" stroke-width="null" stroke="null" fill="none"/>
  <polyline stroke-linecap="round" id="svg_8" points="302.0862292980464,59.74914774796544 302.0862292980464,59.74914774796544 " fill-opacity="null" stroke-opacity="null" stroke-width="null" stroke="null" fill="none"/>
  <polyline stroke-linecap="round" id="svg_9" points="296.45106811845653,73.83705069694031 296.45106811845653,73.83705069694031 " fill-opacity="null" stroke-opacity="null" stroke-width="null" stroke="null" fill="none"/>
 </g>
</svg>