<svg width="256" height="256" xmlns="http://www.w3.org/2000/svg">

 <g>
  <title>background</title>
  <rect fill="none" id="canvas_background" height="402" width="582" y="-1" x="-1"/>
 </g>
 <g>
  <title>Layer 1</title>
  <path stroke="null" id="svg_2" fill-rule="evenodd" clip-rule="evenodd" fill="#81cfe0" d="m233.838372,25.812053c-2.37178,-4.193376 -5.069559,-8.020903 -8.53614,-11.371567c-3.479656,-3.362438 -7.591263,-6.381736 -11.94432,-8.674384c-7.30536,-3.848553 -16.376697,-5.766102 -25.279805,-5.766102l-120.157088,0c-9.103589,0 -17.905584,1.972215 -25.509051,5.843477c-4.377463,2.229571 -8.35745,5.169812 -11.769117,8.517111c-3.427357,3.362438 -6.529585,7.138663 -8.756669,11.41446c-3.738538,7.176509 -5.468778,15.539712 -5.468778,24.094669l0,115.583598c0,8.684476 1.456539,17.390819 5.487954,24.502569c2.336913,4.121047 5.39643,8.293397 8.792407,11.601168c3.4291,3.33973 7.481435,6.077283 11.769989,8.373295c7.378579,3.952841 16.423767,5.393526 25.453265,5.393526l120.157088,0c9.211674,0 17.780937,-1.280889 25.262372,-5.383433c4.130784,-2.264053 8.611103,-5.142058 11.930374,-8.381705c3.419512,-3.338048 6.275933,-7.443957 8.617204,-11.604532c3.979987,-7.078109 5.694537,-15.874442 5.694537,-24.500887l0,-115.584439c0,-8.667656 -1.726753,-16.955165 -5.744222,-24.056823z"/>
  <path stroke="null" id="svg_4" fill-rule="evenodd" clip-rule="evenodd" fill="#2c3e50" d="m101.316425,113.850335c20.312608,0 12.313131,0.014332 32.205478,0.014332c-0.160587,-8.804938 -2.069699,-11.977379 -3.359524,-12.119857c-20.351901,0 -4.188087,-0.007588 -27.94991,-0.007588c0.052106,-0.802595 1.066028,-20.260462 1.461517,-37.643554l26.451663,0c0.648329,-6.414014 -0.914836,-11.960518 -3.859225,-12.312075c-35.87849,0 -13.939506,0.038781 -46.9129,0.038781c0.722644,-2.755126 1.592208,-6.01356 2.594171,-9.139633c1.539248,-4.80208 3.273251,-9.372318 4.072772,-11.25066c-0.653454,-0.401297 -1.787817,-0.123087 -4.630557,0.544618c-3.312544,0.976266 -5.22251,1.943258 -8.01827,4.305517c-1.458954,1.232556 -2.540357,2.825943 -3.410776,4.600588c-3.020411,7.324521 -9.038171,27.762026 -16.843748,41.831885c12.112396,-0.716603 18.0678,-7.593458 20.073435,-13.05144c0.746561,-2.031779 1.514477,-3.919394 1.954384,-5.642613c5.108903,-0.038781 9.012545,-0.04131 16.090353,-0.04131c0.074314,6.913107 -0.101648,20.344768 -1.237719,37.690765c-14.188075,0 -20.775578,-0.097795 -28.90233,-0.097795c-4.178691,1.118743 -6.391894,7.812654 -7.060724,12.190674c0.039293,0.038781 0.078585,0.077562 0.117878,0.116343c18.29416,0 14.926948,0 34.420389,0c-0.840522,6.54216 -1.107883,9.756755 -3.907913,19.343211c-4.758685,14.160066 -12.144855,25.45035 -22.49506,35.610088c-2.763301,2.712973 -6.60715,6.14845 -10.375831,9.07809c-0.117878,0.155123 -0.235756,0.309404 -0.353634,0.46537c3.544883,3.03418 15.821284,-0.045525 18.747734,-1.047083c2.371228,-0.811869 4.762102,-1.438263 6.485001,-2.909406c6.586649,-5.623222 14.68863,-18.050797 19.866722,-36.684992c18.718692,21.562149 23.054554,28.044452 27.768822,33.425715l0.471512,0c1.488851,-5.439435 2.545482,-14.052155 0.58939,-18.270836c-0.130691,-0.594359 -0.621849,-1.296629 -1.140342,-2.08995c-9.384117,-11.081205 -9.253427,-10.865381 -19.44219,-21.905275c-6.041677,4.777631 -7.4229,5.962133 -7.4229,5.962133s1.406849,-5.211808 1.830526,-7.046311c1.350472,-5.864338 1.451267,-8.520826 2.121805,-13.957732zm101.681773,-64.001038c-30.239136,0 -24.410152,0.047211 -59.864109,0.047211c-0.76877,0 -1.745108,0.709858 -1.745108,1.655773c0,66.632234 -0.006834,9.287169 -0.006834,110.376183c0,0.695526 0.650892,1.563037 1.743399,1.563037c6.848885,0 7.580925,0.010117 9.471245,-0.008431c0.544118,0.003372 1.653709,6.021148 4.069355,12.630752c12.887145,-8.252732 18.649503,-11.764928 21.577662,-12.581012c8.292464,-0.038781 23.482503,-0.049741 24.786849,-0.049741c0.672247,0 1.48458,-0.814398 1.48458,-1.603504c0,-73.600983 0.044418,-35.102565 0.044418,-110.58442c-0.000854,-0.891116 -1.013068,-1.391895 -1.561457,-1.445851zm-11.153997,100.281361c0,0.478016 -0.492013,0.971207 -0.899461,0.971207c-0.790125,0 -7.854265,0.006744 -12.878604,0.029507c-0.177671,0 -0.469804,0.116343 -0.700435,0.273152c-3.159644,2.151494 -7.870495,5.130031 -15.579548,9.729777c-1.325701,-4.415958 -2.501065,-10.014731 -2.830781,-10.017261c-1.144613,0.011803 0.318612,0.005058 -3.829328,0.005058c-0.661996,0 -1.056631,-0.525228 -1.056631,-0.946758c0,-61.243383 0.004271,-46.86665 0.004271,-87.234979c0,-0.573282 0.591099,-1.003244 1.056631,-1.003244c21.47943,0 17.332344,-0.027821 35.652984,-0.027821c0.446741,0 1.089091,0.42406 1.089091,0.96362c-0.000854,45.72936 -0.028188,42.667359 -0.028188,87.257742z"/>
 </g>
</svg>