<?xml version="1.0" standalone="no"?>
<!DOCTYPE svg PUBLIC "-//W3C//DTD SVG 20010904//EN"
 "http://www.w3.org/TR/2001/REC-SVG-20010904/DTD/svg10.dtd">
<svg version="1.0" xmlns="http://www.w3.org/2000/svg"
 width="700.000000pt" height="700.000000pt" viewBox="0 0 700.000000 700.000000"
 preserveAspectRatio="xMidYMid meet">
<metadata>
Created by potrace 1.11, written by Peter Selinger 2001-2013
</metadata>
<g transform="translate(0.000000,700.000000) scale(0.100000,-0.100000)"
fill="#000000" stroke="none">
<path d="M3305 6994 c-848 -56 -1620 -409 -2206 -1011 -547 -561 -873 -1277
-940 -2062 -14 -174 -6 -546 16 -706 101 -732 407 -1367 916 -1900 l77 -80
-112 -470 -111 -470 -60 -5 c-34 -3 -73 -13 -88 -23 -94 -61 -86 -200 13 -249
33 -17 182 -18 2690 -18 2508 0 2657 1 2689 18 48 24 73 62 78 119 8 88 -48
144 -151 153 l-61 5 -111 470 -112 470 77 80 c503 526 805 1147 912 1875 25
173 36 545 20 725 -70 796 -392 1505 -940 2068 -542 556 -1242 901 -2011 992
-134 15 -470 26 -585 19z m-615 -596 c134 -70 86 -271 -65 -271 -108 0 -179
118 -127 213 19 36 89 80 127 80 11 0 41 -10 65 -22z m1750 0 c134 -70 86
-271 -65 -271 -108 0 -179 118 -127 213 19 36 89 80 127 80 11 0 41 -10 65
-22z m-2612 -878 c33 -20 71 -87 72 -124 0 -40 -39 -102 -79 -124 -49 -28 -93
-28 -141 -1 -69 39 -94 125 -56 197 36 69 135 94 204 52z m1750 0 c43 -26 76
-98 67 -143 -16 -73 -78 -127 -145 -127 -43 0 -103 35 -125 73 -38 64 -14 159
48 197 42 26 112 26 155 0z m1754 -5 c49 -33 74 -97 59 -151 -14 -49 -27 -66
-71 -93 -44 -27 -92 -27 -140 0 -69 39 -94 125 -56 197 37 72 138 95 208 47z
m-1324 -1580 c276 -553 502 -1007 502 -1010 0 -3 -454 -5 -1010 -5 -555 0
-1010 2 -1010 5 0 10 1005 2015 1010 2015 3 0 231 -452 508 -1005z m-3068 713
c134 -70 86 -271 -65 -271 -108 0 -179 118 -127 213 19 36 89 80 127 80 11 0
41 -10 65 -22z m1750 0 c134 -70 86 -271 -65 -271 -108 0 -179 118 -127 213
19 36 89 80 127 80 11 0 41 -10 65 -22z m1750 0 c134 -70 86 -271 -65 -271
-108 0 -179 118 -127 213 19 36 89 80 127 80 11 0 41 -10 65 -22z m1750 0 c76
-40 101 -123 59 -198 -52 -92 -179 -99 -243 -13 -28 37 -32 110 -8 153 19 36
89 80 127 80 11 0 41 -10 65 -22z m-4362 -878 c33 -20 71 -87 72 -124 0 -40
-39 -102 -79 -124 -49 -28 -93 -28 -141 -1 -69 39 -94 125 -56 197 36 69 135
94 204 52z m3504 -5 c49 -33 74 -97 59 -151 -14 -49 -27 -66 -71 -93 -44 -27
-92 -27 -140 0 -69 39 -94 125 -56 197 37 72 138 95 208 47z m-4392 -867 c134
-70 86 -271 -65 -271 -108 0 -179 118 -127 213 19 36 89 80 127 80 11 0 41
-10 65 -22z m5250 0 c76 -40 101 -123 59 -198 -52 -92 -179 -99 -243 -13 -28
37 -32 110 -8 153 19 36 89 80 127 80 11 0 41 -10 65 -22z m-4362 -878 c33
-20 71 -87 72 -124 0 -40 -39 -102 -79 -124 -49 -28 -93 -28 -141 -1 -69 39
-94 125 -56 197 36 69 135 94 204 52z m3504 -5 c49 -33 74 -97 59 -151 -14
-49 -27 -66 -71 -93 -44 -27 -92 -27 -140 0 -69 39 -94 125 -56 197 37 72 138
95 208 47z m-444 -1165 c43 -26 76 -98 66 -143 -3 -18 -15 -44 -26 -60 -43
-61 49 -57 -1430 -57 -1323 0 -1354 1 -1385 20 -46 28 -65 63 -65 119 0 55 21
95 67 122 29 18 83 19 1385 19 1343 0 1355 0 1388 -20z"/>
</g>
</svg>
